<svg aria-hidden="true" style="position: absolute; width: 0; height: 0; overflow: hidden;" version="1.1" xmlns="http://www.w3.org/2000/svg" xmlns:xlink="http://www.w3.org/1999/xlink">
<defs>
<symbol id="facebook" viewBox="0 0 32 32">
<path d="M17.017 16.74v7.834l-3.503-0.001v-7.834h-2.847v-3.241h2.847v-2.47c0-2.809 1.673-4.362 4.234-4.362 1.226 0 2.51 0.219 2.51 0.219v2.76h-1.414c-1.392 0-1.827 0.864-1.827 1.751v2.103h3.11l-0.497 3.241h-2.613z"></path>
</symbol>
<symbol id="twitter" viewBox="0 0 32 32">
<path d="M0 0h32v32h-32v-32z"></path>
<path d="M23.282 12.777c0.010 0.15 0.010 0.3 0.010 0.451 0 4.616-3.514 9.939-9.939 9.939v-0.003c-1.898 0.003-3.756-0.541-5.354-1.566 0.276 0.033 0.553 0.050 0.831 0.050 1.573 0.001 3.101-0.526 4.338-1.498-1.495-0.028-2.806-1.003-3.263-2.426 0.524 0.101 1.063 0.080 1.577-0.060-1.63-0.329-2.802-1.761-2.802-3.424 0-0.015 0-0.030 0-0.044 0.486 0.271 1.029 0.421 1.585 0.437-1.535-1.025-2.009-3.067-1.082-4.663 1.773 2.182 4.39 3.509 7.199 3.65-0.282-1.213 0.103-2.484 1.010-3.338 1.407-1.323 3.619-1.255 4.942 0.152 0.783-0.154 1.532-0.441 2.218-0.848-0.261 0.809-0.807 1.495-1.536 1.932 0.693-0.083 1.369-0.268 2.007-0.55-0.469 0.702-1.059 1.314-1.743 1.808z"></path>
</symbol>
<symbol id="instagram" viewBox="0 0 32 32">
<path d="M15.375 8.236c2.325 0 2.601 0.009 3.519 0.051 0.949 0.044 1.927 0.26 2.618 0.951 0.698 0.698 0.908 1.666 0.951 2.618 0.042 0.918 0.051 1.194 0.051 3.519s-0.009 2.601-0.051 3.519c-0.043 0.944-0.264 1.931-0.951 2.618-0.698 0.698-1.665 0.908-2.618 0.951-0.918 0.042-1.194 0.051-3.519 0.051s-2.601-0.009-3.519-0.051c-0.937-0.043-1.937-0.269-2.618-0.951-0.694-0.694-0.908-1.672-0.951-2.618-0.042-0.918-0.051-1.194-0.051-3.519s0.009-2.601 0.051-3.519c0.043-0.941 0.266-1.933 0.951-2.618 0.697-0.697 1.668-0.908 2.618-0.951 0.918-0.042 1.194-0.051 3.519-0.051zM15.375 6.667c-2.365 0-2.662 0.010-3.591 0.052-1.346 0.062-2.683 0.436-3.656 1.409-0.977 0.977-1.348 2.311-1.409 3.656-0.042 0.929-0.052 1.226-0.052 3.591s0.010 2.662 0.052 3.591c0.062 1.345 0.438 2.685 1.409 3.656 0.976 0.976 2.312 1.348 3.656 1.409 0.929 0.042 1.226 0.052 3.591 0.052s2.662-0.010 3.591-0.052c1.345-0.062 2.684-0.437 3.656-1.409 0.978-0.977 1.348-2.311 1.409-3.656 0.042-0.929 0.052-1.226 0.052-3.591s-0.010-2.662-0.052-3.591c-0.062-1.346-0.437-2.684-1.409-3.656-0.975-0.975-2.314-1.348-3.656-1.409-0.929-0.042-1.226-0.052-3.591-0.052z"></path>
<path d="M15.374 10.903c-2.47 0-4.472 2.002-4.472 4.472s2.002 4.472 4.472 4.472c2.47 0 4.472-2.002 4.472-4.472s-2.002-4.472-4.472-4.472zM15.374 18.278c-1.603 0-2.903-1.3-2.903-2.903s1.3-2.903 2.903-2.903c1.603 0 2.903 1.3 2.903 2.903s-1.3 2.903-2.903 2.903z"></path>
<path d="M20.023 11.771c0.577 0 1.045-0.468 1.045-1.045s-0.468-1.045-1.045-1.045c-0.577 0-1.045 0.468-1.045 1.045s0.468 1.045 1.045 1.045z"></path>
</symbol>

<symbol id="logo" viewBox="0 0 32 32">
<path d="M12.255 17.985v1.491c0 0.241-0.096 0.472-0.266 0.643s-0.402 0.267-0.643 0.267h-1.135c-0.12 0-0.238-0.023-0.349-0.069s-0.211-0.113-0.296-0.197c-0.085-0.085-0.152-0.185-0.198-0.296s-0.070-0.229-0.070-0.349v-1.491c-0.218 0.258-0.338 0.584-0.337 0.922l0.006 3.383c0 0.124 0.049 0.242 0.137 0.33s0.206 0.137 0.33 0.137h2.695c0.061 0.001 0.123-0.010 0.18-0.032s0.11-0.056 0.154-0.099c0.044-0.043 0.078-0.094 0.102-0.151s0.035-0.118 0.035-0.179v-3.383c0-0.34-0.121-0.669-0.343-0.928z"></path>
<path d="M15.040 10.792l0.307 0.105c0.054 0.018 0.104 0.048 0.144 0.089s0.071 0.090 0.089 0.144l0.105 0.307c0.002 0.007 0.006 0.014 0.012 0.018s0.013 0.007 0.021 0.007 0.015-0.002 0.021-0.007c0.006-0.005 0.010-0.011 0.012-0.018l0.105-0.307c0.018-0.054 0.048-0.104 0.089-0.144s0.090-0.071 0.144-0.089l0.307-0.105c0.007-0.002 0.013-0.007 0.017-0.013s0.007-0.013 0.007-0.021c0-0.007-0.002-0.015-0.007-0.021s-0.010-0.010-0.017-0.013l-0.307-0.105c-0.054-0.018-0.104-0.048-0.144-0.089s-0.071-0.090-0.089-0.144l-0.105-0.307c-0.002-0.007-0.006-0.014-0.012-0.018s-0.013-0.007-0.021-0.007-0.015 0.002-0.021 0.007c-0.006 0.005-0.010 0.011-0.012 0.018l-0.105 0.307c-0.018 0.054-0.048 0.104-0.089 0.144s-0.090 0.071-0.144 0.089l-0.307 0.105c-0.007 0.002-0.013 0.007-0.017 0.013s-0.007 0.013-0.007 0.021c0 0.007 0.002 0.015 0.007 0.021s0.010 0.010 0.017 0.013z"></path>
<path d="M17.191 17.506c0 0.241-0.096 0.472-0.266 0.643s-0.402 0.267-0.643 0.267h-1.136c-0.241-0-0.472-0.096-0.643-0.267s-0.266-0.402-0.266-0.643v-1.489c-0.218 0.258-0.338 0.584-0.337 0.922v5.355c0 0.124 0.049 0.242 0.137 0.33s0.206 0.137 0.33 0.137h2.695c0.124 0 0.242-0.049 0.33-0.137s0.137-0.206 0.137-0.33v-5.355c0.002-0.338-0.118-0.665-0.337-0.923v1.49z"></path>
<path d="M10.801 13.463l0.307 0.105c0.054 0.018 0.104 0.049 0.144 0.089s0.071 0.090 0.089 0.144l0.1 0.308c0 0.010 0.004 0.019 0.011 0.026s0.016 0.011 0.026 0.011c0.010 0 0.019-0.004 0.026-0.011s0.011-0.016 0.011-0.026l0.105-0.307c0.018-0.054 0.049-0.104 0.089-0.144s0.090-0.071 0.144-0.089l0.307-0.105c0.007-0.002 0.014-0.006 0.018-0.012s0.007-0.013 0.007-0.021c0-0.007-0.002-0.015-0.007-0.021s-0.011-0.010-0.018-0.012l-0.317-0.106c-0.054-0.018-0.104-0.049-0.144-0.089s-0.071-0.090-0.089-0.144l-0.095-0.303c-0.002-0.007-0.007-0.013-0.013-0.017s-0.013-0.007-0.021-0.007-0.015 0.002-0.021 0.007c-0.006 0.004-0.010 0.010-0.013 0.017l-0.111 0.303c-0.017 0.054-0.047 0.103-0.086 0.143s-0.088 0.071-0.141 0.090l-0.308 0.105c-0.007 0.002-0.014 0.006-0.018 0.012s-0.007 0.013-0.007 0.021c0 0.007 0.002 0.015 0.007 0.021s0.011 0.010 0.018 0.012z"></path>
<path d="M10.211 19.917h1.135c0.117-0 0.229-0.047 0.312-0.129s0.13-0.195 0.13-0.312v-2.205c0-0.268-0.107-0.526-0.296-0.716s-0.447-0.296-0.716-0.296c-0.268 0-0.526 0.107-0.716 0.296s-0.296 0.447-0.296 0.716v2.205c0 0.058 0.012 0.116 0.035 0.17s0.056 0.103 0.097 0.143c0.041 0.041 0.091 0.073 0.145 0.095s0.112 0.033 0.17 0.032z"></path>
<path d="M14.703 15.304v2.201c0 0.117 0.047 0.23 0.129 0.313s0.195 0.13 0.313 0.13h1.136c0.117-0 0.23-0.047 0.313-0.13s0.129-0.196 0.129-0.313v-0.995c-0.124 0.173-0.149 0.252-0.34 0.283-0.050 0.003-0.1-0.005-0.146-0.026s-0.086-0.052-0.117-0.091c-0.027-0.032-0.049-0.067-0.067-0.105-0.243-0.636-0.233-1.555 0.008-1.891 0.067-0.079 0.142-0.151 0.223-0.216-0.169-0.114-0.368-0.175-0.572-0.173-0.268 0-0.525 0.107-0.714 0.297s-0.296 0.447-0.296 0.715z"></path>
<path d="M22.113 17.986v1.49c-0 0.241-0.096 0.473-0.267 0.643s-0.402 0.267-0.643 0.267h-1.135c-0.241-0-0.473-0.096-0.643-0.267s-0.267-0.402-0.267-0.643v-1.491c-0.217 0.258-0.337 0.584-0.337 0.922l0.006 3.383c0 0.124 0.049 0.242 0.137 0.33s0.206 0.137 0.33 0.137h2.696c0.124 0 0.242-0.049 0.33-0.137s0.137-0.206 0.137-0.33l-0.007-3.383c0.001-0.337-0.118-0.663-0.336-0.921z"></path>
<path d="M17.168 15.197c0.011-0.066 0.004-0.134-0.022-0.195s-0.068-0.115-0.122-0.155c-0.066-0.045-0.144-0.070-0.224-0.070-0.030 0.002-0.059 0.006-0.089 0.012-0.055 0.009-0.108 0.030-0.155 0.060s-0.087 0.070-0.118 0.116c-0.077 0.133-0.11 0.288-0.094 0.441 0 0.134 0.020 0.548 0.041 0.623 0.002 0.011 0.008 0.021 0.015 0.029s0.017 0.014 0.028 0.016c0.011 0.003 0.022 0.002 0.032-0.002s0.020-0.010 0.027-0.019c0.008-0.011 0.186-0.212 0.198-0.233 0.145-0.184 0.462-0.351 0.482-0.623z"></path>
<path d="M20.068 19.917h1.135c0.118 0 0.23-0.047 0.314-0.13s0.13-0.196 0.13-0.313v-2.203c-0.009-0.262-0.119-0.511-0.308-0.693s-0.441-0.284-0.703-0.284c-0.262 0-0.514 0.102-0.703 0.284s-0.299 0.431-0.308 0.693v2.205c0.001 0.117 0.048 0.229 0.131 0.312s0.195 0.129 0.313 0.129z"></path>
<path d="M22.556 10.795l-2.15 2.148c-0.094 0.093-0.213 0.158-0.343 0.187-0.089 0.024-0.182 0.026-0.272 0.007-0.089-0.016-0.175-0.049-0.252-0.097l-1.060 1.062c-0.066 0.064-0.146 0.113-0.233 0.142-0.123 0.037-0.254 0.031-0.373-0.018l-0.566 0.567c-0.044 0.044-0.103 0.068-0.165 0.068s-0.121-0.025-0.165-0.068c-0.044-0.044-0.068-0.103-0.068-0.165s0.025-0.121 0.068-0.165l0.117-0.11 0.456-0.456c-0.025-0.065-0.038-0.134-0.039-0.203 0.001-0.117 0.037-0.231 0.104-0.327 0.049-0.071 1.114-1.128 1.114-1.128-0.045-0.060-0.082-0.125-0.11-0.195-0.028-0.082-0.042-0.167-0.042-0.253 0.005-0.12 0.039-0.237 0.099-0.342 0.030-0.049 0.064-0.096 0.1-0.14l2.149-2.144c0.065-0.065 0.142-0.117 0.227-0.152s0.176-0.053 0.268-0.053 0.183 0.018 0.268 0.053c0.085 0.035 0.162 0.087 0.227 0.152l0.64 0.64c0.131 0.131 0.205 0.309 0.205 0.495s-0.074 0.363-0.205 0.495z"></path>
</symbol>
</defs>
</svg>
